<svg xmlns="http://www.w3.org/2000/svg" width="77.324" height="74.802" viewBox="0 0 77.324 74.802"><defs><style>.a{fill:#fff;}</style></defs><path class="a" d="M32.883,23.437a4.834,4.834,0,0,0,9.405,0Z" transform="translate(-28.037 12.776)"/><path class="a" d="M10.937,17.969V25.4a3.082,3.082,0,0,1,3.183,2.973h7.957C22.077,22.629,17.088,17.969,10.937,17.969Z" transform="translate(39.488 11.303)"/><path class="a" d="M5.887,32.613a2.784,2.784,0,0,1-2.762-2.807V27a2.784,2.784,0,0,1,2.762-2.807H20.405a32.983,32.983,0,0,1,26.9-14.035c18.275,0,33.139,15.109,33.139,33.685S65.585,77.526,47.31,77.526A32.91,32.91,0,0,1,22.622,66.3H5.887a2.784,2.784,0,0,1-2.762-2.807V60.684a2.784,2.784,0,0,1,2.762-2.807,14.061,14.061,0,0,1,7.829-12.632A14.061,14.061,0,0,1,5.887,32.613Zm0-2.807H33.5V27H5.887ZM36.264,60.684v2.807a2.836,2.836,0,0,1-1.208,2.323A24.266,24.266,0,0,0,47.31,69.105,25.049,25.049,0,0,0,72.1,45.245H54.076a6.918,6.918,0,1,1-8.147-8.281V18.648a24.241,24.241,0,0,0-14.2,5.544H33.5A2.784,2.784,0,0,1,36.264,27v2.807A2.784,2.784,0,0,1,33.5,32.613a14.061,14.061,0,0,1-7.829,12.632A14.061,14.061,0,0,1,33.5,57.877,2.784,2.784,0,0,1,36.264,60.684ZM47.31,39.631a4.211,4.211,0,1,0,4.142,4.211A4.18,4.18,0,0,0,47.31,39.631Zm1.381-2.667a6.994,6.994,0,0,1,5.385,5.474H72.1a25.058,25.058,0,0,0-23.4-23.79ZM47.31,74.719c16.749,0,30.377-13.853,30.377-30.878S64.059,12.963,47.31,12.963A30.207,30.207,0,0,0,23.892,24.192h3.735A27.48,27.48,0,0,1,47.31,15.77a28.075,28.075,0,0,1,0,56.142A27.07,27.07,0,0,1,30.761,66.3H26.467A30.093,30.093,0,0,0,47.31,74.719ZM5.887,63.491H33.5V60.684H5.887Zm2.762-5.614H30.741a11.178,11.178,0,0,0-9.666-11.13v2.709H18.314V46.747A11.178,11.178,0,0,0,8.648,57.877Zm9.665-14.134V41.034h2.762v2.709a11.178,11.178,0,0,0,9.666-11.13H8.648A11.178,11.178,0,0,0,18.314,43.743Z" transform="translate(-3.125 -2.724)"/><path class="a" d="M31.289,13.376,38.041,7.07l1.126,1.052-6.752,6.306Z" transform="translate(-16.149 -2.574)"/><path class="a" d="M4.727,8.122,5.852,7.07,12.6,13.376l-1.126,1.052Z" transform="translate(63.089 -2.574)"/><path class="a" d="M21.933,8.289A3.087,3.087,0,0,1,18.75,5.317a3.19,3.19,0,0,1,6.366,0A3.087,3.087,0,0,1,21.933,8.289Zm0-4.459a1.541,1.541,0,0,0-1.591,1.486,1.6,1.6,0,0,0,3.183,0A1.541,1.541,0,0,0,21.933,3.83Z" transform="translate(22.642 -2.344)"/></svg>