<svg xmlns="http://www.w3.org/2000/svg" width="48.67" height="66.619" viewBox="0 0 48.67 66.619"><defs><style>.a{fill:#fff;}</style></defs><path class="a" d="M71.522,0C58.114,0,47.2,11.983,47.2,26.7a28.779,28.779,0,0,0,.433,5.014c.013.1.064.391.165.894a28.1,28.1,0,0,0,1.628,5.265c2.62,6.774,8.383,17.178,21.027,28.324a1.6,1.6,0,0,0,2.163,0C85.248,55.055,91.023,44.65,93.643,37.876a27.787,27.787,0,0,0,1.628-5.265c.1-.5.153-.8.165-.894A30.072,30.072,0,0,0,95.87,26.7C95.844,11.983,84.93,0,71.522,0ZM92.028,31.061c0,.028-.013.056-.013.084-.013.07-.051.279-.114.6v.028a23.689,23.689,0,0,1-1.412,4.553c-.013.014-.013.042-.025.056C88.084,42.569,82.869,52.01,71.522,62.3,60.175,52.01,54.96,42.569,52.581,36.382c-.013-.014-.013-.042-.025-.056a25.272,25.272,0,0,1-1.412-4.553v-.028c-.076-.321-.1-.531-.114-.6,0-.028-.013-.056-.013-.1a24.973,24.973,0,0,1-.382-4.357c0-12.639,9.375-22.933,20.887-22.933S92.409,14.05,92.409,26.689A24.9,24.9,0,0,1,92.028,31.061Z" transform="translate(-47.2)"/><path class="a" d="M132.443,71.9C123.933,71.9,117,79.512,117,88.855s6.933,16.955,15.443,16.955,15.443-7.612,15.443-16.955S140.953,71.9,132.443,71.9Zm0,30.139c-6.628,0-12.008-5.922-12.008-13.184s5.394-13.184,12.008-13.184,12.008,5.922,12.008,13.184S139.07,102.039,132.443,102.039Z" transform="translate(-108.121 -61.858)"/></svg>