<svg xmlns="http://www.w3.org/2000/svg" width="104.305" height="93.096" viewBox="0 0 104.305 93.096"><defs><style>.a{fill:#fff;}</style></defs><g transform="translate(49.703 9.644)"><path class="a" d="M102.363,84.61a7.941,7.941,0,0,0-9.97-.806L70.242,98.817a8.38,8.38,0,0,0-5.176-8.62l-8.932-3.6a33.973,33.973,0,0,0-25.728.072L19.872,90.983A10.233,10.233,0,0,0,9.014,89.9L3.419,92.7a5.158,5.158,0,0,0-2.309,6.922L16.3,129.986a5.134,5.134,0,0,0,4.615,2.849,5.2,5.2,0,0,0,2.3-.544l5.594-2.8a10.178,10.178,0,0,0,5.645-9.227l24.414.531q.25.006.5.005a22.469,22.469,0,0,0,12.665-3.892l29.328-19.876a7.99,7.99,0,0,0,1-12.424ZM28.952,121.924a4.928,4.928,0,0,1-2.492,2.869l-5.508,2.755L5.855,97.355,11.362,94.6a4.97,4.97,0,0,1,6.663,2.22L28.68,118.133A4.928,4.928,0,0,1,28.952,121.924ZM99.6,90.639a2.724,2.724,0,0,1-1.192,2.045L69.084,112.56a17.163,17.163,0,0,1-10.1,2.983l-26-.565L23.15,95.32,32.4,91.532a28.753,28.753,0,0,1,21.771-.061l8.932,3.6a3.109,3.109,0,0,1,1.844,3.643,3.514,3.514,0,0,1-3.642,2.654c-.047-.007-.1-.008-.142-.016l-16.421-2.8a2.628,2.628,0,0,0-.883,5.181l.6.1-.026.161s9.391,1.5,15.685,2.52c.123.02.245.03.367.045a16.315,16.315,0,0,0,11.593-2.639L95.342,88.155A2.737,2.737,0,0,1,99.6,90.639Z" transform="translate(-50.267 -49.383)"/><g transform="translate(-0.072 -9.644)"><path class="a" d="M106.29,58.447H95.672a3.034,3.034,0,0,1-3.034-3.034V44.842H82.069a3.035,3.035,0,0,1-3.034-3.034V31.2a3.035,3.035,0,0,1,3.034-3.034H92.639V17.59a3.034,3.034,0,0,1,3.034-3.034H106.29a3.034,3.034,0,0,1,3.034,3.034v10.57H119.89a3.034,3.034,0,0,1,3.034,3.034V41.808a3.034,3.034,0,0,1-3.034,3.034H109.325v10.57A3.035,3.035,0,0,1,106.29,58.447Zm-7.583-6.069h4.548V41.808a3.034,3.034,0,0,1,3.034-3.034h10.565V34.23H106.29a3.034,3.034,0,0,1-3.034-3.034V20.625H98.707V31.2a3.034,3.034,0,0,1-3.034,3.034H85.1v4.544H95.673a3.034,3.034,0,0,1,3.034,3.034v10.57Z" transform="translate(-79.035 -14.556)"/></g></g></svg>